<svg width="18" height="18" viewBox="0 0 18 18" fill="none" xmlns="http://www.w3.org/2000/svg">
<path fill-rule="evenodd" clip-rule="evenodd" d="M13.2806 6.21937C13.4215 6.36005 13.5006 6.55094 13.5006 6.75C13.5006 6.94906 13.4215 7.13995 13.2806 7.28063L8.03063 12.5306C7.88995 12.6715 7.69906 12.7506 7.5 12.7506C7.30094 12.7506 7.11005 12.6715 6.96937 12.5306L4.71938 10.2806C4.42632 9.98757 4.42632 9.51243 4.71938 9.21937C5.01243 8.92632 5.48757 8.92632 5.78063 9.21937L7.5 10.9397L12.2194 6.21937C12.3601 6.07854 12.5509 5.99941 12.75 5.99941C12.9491 5.99941 13.1399 6.07854 13.2806 6.21937ZM18 1.5V16.5C18 17.3284 17.3284 18 16.5 18H1.5C0.671573 18 0 17.3284 0 16.5V1.5C0 0.671573 0.671573 0 1.5 0H16.5C17.3284 0 18 0.671573 18 1.5ZM16.5 16.5V1.5H1.5V16.5H16.5Z" fill="#F9FAFB"/>
</svg>
